# xmcd
#
# Track frame offsets:
#	150
#	19954
#	33271
#	48682
#	70282
#	89882
#	108982
#
# Disc length: 1674 seconds
#
# Revision: 0
# Processed by: cddbd v1.5.2PL0 Copyright (c) Steve Scherf et al.
# Submitted via: dBpowerAMP V4.0
#
DISCID=61068807
DTITLE=Andrew Winton - Can't Slow Down
DYEAR=1900
DGENRE=Blues
TTITLE0=Can't Slow Down
TTITLE1=10 Pound 1
TTITLE2=Rory's Little Lullaby
TTITLE3=You Gotta Move (live)
TTITLE4=Coakle's Run/Fatty Ham Bone (live)
TTITLE5=Staning On Shoulders (live)
TTITLE6=Rollin' And Tumblin' (live)
EXTD=
EXTT0=
EXTT1=
EXTT2=
EXTT3=
EXTT4=
EXTT5=
EXTT6=
PLAYORDER=
